<?xml version="1.0" encoding="UTF-8"?>
<svg id="Layer_1" xmlns="http://www.w3.org/2000/svg" version="1.1" viewBox="0 0 24 24">
  <!-- Generator: Adobe Illustrator 29.3.1, SVG Export Plug-In . SVG Version: 2.1.0 Build 151)  -->
  <defs>
    <style>
      .st0 {
        fill: #fff;
      }
    </style>
  </defs>
  <path class="st0" d="M18,14.5v-3.5c0-.6-.4-1-1-1h-1c2.2-1.6,2.8-4.7,1.1-7-1.6-2.2-4.7-2.7-7-1.1-.7.5-1.2,1.1-1.6,1.9-2.4-1.5-5.4-.7-6.9,1.6-1.4,2.3-.7,5.4,1.6,6.9.2.1.4.2.6.3v8.4c0,.6.4,1,1,1h12c.6,0,1-.4,1-1v-3.5l4,4v-11l-4,4M13,4c1.1,0,2,.9,2,2s-.9,2-2,2-2-.9-2-2,.9-2,2-2M6,6c1.1,0,2,.9,2,2s-.9,2-2,2-2-.9-2-2,.9-2,2-2Z"/>
</svg>